<?xml version="1.0" encoding="UTF-8"?>
<svg width="184px" height="40px" viewBox="0 0 184 40" version="1.1" xmlns="http://www.w3.org/2000/svg" xmlns:xlink="http://www.w3.org/1999/xlink">
    <!-- Generator: Sketch 52.5 (67469) - https://www.bohemiancoding.com/sketch -->
    <title>Group 18</title>
    <desc>Created with Sketch.</desc>
    <defs>
        <polygon id="path-1" points="0 0.0006 183.195 0.0006 183.195 40 0 40"></polygon>
    </defs>
    <g id="Page-1" stroke="none" stroke-width="1" fill="none" fill-rule="evenodd">
        <g id="Desktop-HD" transform="translate(-155.000000, -24.000000)">
            <g id="Group-18" transform="translate(155.000000, 24.000000)">
                <path d="M62.8696,27.8264 C62.3546,28.2904 61.7196,28.5214 60.9626,28.5214 C59.5126,28.5214 58.2306,27.4454 57.1166,25.2924 L53.4136,27.6434 C54.2846,29.4664 55.3326,30.8024 56.5566,31.6524 C57.7796,32.5034 59.2156,32.9284 60.8646,32.9284 C62.9746,32.9284 64.6866,32.2764 66.0006,30.9734 C67.3126,29.6704 67.9696,28.0194 67.9696,26.0204 C67.9696,24.9934 67.7826,24.0474 67.4096,23.1804 C67.0366,22.3124 66.4036,21.4044 65.5106,20.4554 C65.1526,20.0684 64.1336,19.1364 62.4516,17.6554 C60.6546,16.0554 59.5776,15.0114 59.2216,14.5244 C58.9576,14.1604 58.8266,13.7744 58.8266,13.3654 C58.8266,12.9574 59.0106,12.5904 59.3786,12.2634 C59.7466,11.9384 60.2196,11.7754 60.7976,11.7754 C61.9846,11.7754 63.1506,12.6144 64.2976,14.2934 L67.5596,11.2624 C66.3416,9.7704 65.2096,8.7444 64.1646,8.1804 C63.1196,7.6174 62.0186,7.3364 60.8646,7.3364 C59.0676,7.3364 57.5576,7.9404 56.3346,9.1494 C55.1106,10.3594 54.4996,11.8084 54.4996,13.4984 C54.4996,14.6684 54.8666,15.8424 55.6016,17.0174 C56.3386,18.1934 57.9676,19.8644 60.4896,22.0284 C61.8126,23.1664 62.6696,24.0114 63.0586,24.5624 C63.4476,25.1154 63.6416,25.6674 63.6416,26.2204 C63.6416,26.8274 63.3846,27.3624 62.8696,27.8264" id="Fill-1" fill="#FFFFFF"></path>
                <path d="M78.4175,12.4709 L79.6605,12.4709 C81.0245,12.4709 81.9585,12.6319 82.4615,12.9529 C83.1535,13.3849 83.5005,14.0729 83.5005,15.0139 C83.5005,15.5569 83.3765,16.0199 83.1305,16.4019 C82.8845,16.7839 82.5455,17.0579 82.1155,17.2239 C81.6855,17.3899 80.9195,17.4739 79.8175,17.4739 L78.4175,17.4739 L78.4175,12.4709 Z M78.4175,21.9949 C80.6625,21.9949 82.2095,21.8679 83.0605,21.6149 C84.5075,21.1729 85.6535,20.3889 86.4975,19.2629 C87.3425,18.1359 87.7655,16.7229 87.7655,15.0219 C87.7655,13.4879 87.4415,12.1699 86.7975,11.0719 C86.1515,9.9729 85.2715,9.1779 84.1535,8.6859 C83.0355,8.1949 81.2135,7.9499 78.6855,7.9499 L74.0115,7.9499 L74.0115,32.3149 L78.4175,32.3149 L78.4175,21.9949 Z" id="Fill-3" fill="#FFFFFF"></path>
                <path d="M99.0405,14.2268 C100.5005,12.6598 102.3015,11.8748 104.4435,11.8748 C106.5645,11.8748 108.3655,12.6778 109.8475,14.2848 C111.3275,15.8918 112.0675,17.8548 112.0675,20.1728 C112.0675,22.5028 111.3325,24.4638 109.8615,26.0538 C108.3925,27.6438 106.6115,28.4388 104.5215,28.4388 C102.6745,28.4388 101.0355,27.8268 99.6075,26.6008 C97.7695,25.0328 96.8515,22.9018 96.8515,20.2058 C96.8515,17.7888 97.5805,15.7948 99.0405,14.2268 M104.5215,32.9278 C107.8395,32.9278 110.6605,31.6968 112.9855,29.2348 C115.3115,26.7718 116.4745,23.7628 116.4745,20.2058 C116.4745,16.6178 115.2955,13.5758 112.9385,11.0798 C110.5825,8.5838 107.7665,7.3358 104.4905,7.3358 C102.3285,7.3358 100.3105,7.9078 98.4365,9.0508 C96.5625,10.1938 95.0905,11.7428 94.0195,13.6968 C92.9485,15.6518 92.4135,17.7938 92.4135,20.1238 C92.4135,23.6028 93.5625,26.6058 95.8615,29.1348 C98.1605,31.6638 101.0475,32.9278 104.5215,32.9278" id="Fill-5" fill="#FFFFFF"></path>
                <path d="M127.1089,12.4709 L128.3169,12.4709 C129.4889,12.4709 130.2939,12.5569 130.7329,12.7289 C131.1719,12.9009 131.5229,13.1829 131.7839,13.5759 C132.0459,13.9699 132.1759,14.4329 132.1759,14.9639 C132.1759,15.8619 131.9119,16.5039 131.3839,16.8919 C130.8559,17.2799 129.8909,17.4739 128.4899,17.4739 L127.1089,17.4739 L127.1089,12.4709 Z M127.1089,21.9949 L127.5119,21.9949 L132.7169,32.3149 L137.5349,32.3149 L132.0509,21.4819 C133.5189,20.9299 134.6179,20.1159 135.3469,19.0389 C136.0759,17.9619 136.4409,16.6229 136.4409,15.0219 C136.4409,13.4979 136.1109,12.1789 135.4509,11.0629 C134.7909,9.9479 133.9179,9.1499 132.8339,8.6689 C131.7489,8.1899 129.9279,7.9499 127.3719,7.9499 L122.7029,7.9499 L122.7029,32.3149 L127.1089,32.3149 L127.1089,21.9949 Z" id="Fill-7" fill="#FFFFFF"></path>
                <polygon id="Fill-9" fill="#FFFFFF" points="144.9419 32.3147 149.4109 32.3147 149.4109 12.5207 153.6279 12.5207 153.6279 7.9497 140.8349 7.9497 140.8349 12.5207 144.9419 12.5207"></polygon>
                <path d="M166.3921,27.8264 C165.8761,28.2904 165.2411,28.5214 164.4851,28.5214 C163.0351,28.5214 161.7531,27.4454 160.6391,25.2924 L156.9351,27.6434 C157.8071,29.4664 158.8551,30.8024 160.0791,31.6524 C161.3021,32.5034 162.7381,32.9284 164.3871,32.9284 C166.4971,32.9284 168.2091,32.2764 169.5221,30.9734 C170.8351,29.6704 171.4921,28.0194 171.4921,26.0204 C171.4921,24.9934 171.3051,24.0474 170.9321,23.1804 C170.5591,22.3124 169.9251,21.4044 169.0331,20.4554 C168.6751,20.0684 167.6561,19.1364 165.9741,17.6554 C164.1771,16.0554 163.1001,15.0114 162.7431,14.5244 C162.4801,14.1604 162.3491,13.7744 162.3491,13.3654 C162.3491,12.9574 162.5331,12.5904 162.9011,12.2634 C163.2681,11.9384 163.7411,11.7754 164.3191,11.7754 C165.5071,11.7754 166.6731,12.6144 167.8191,14.2934 L171.0821,11.2624 C169.8641,9.7704 168.7321,8.7444 167.6871,8.1804 C166.6421,7.6174 165.5411,7.3364 164.3861,7.3364 C162.5901,7.3364 161.0801,7.9404 159.8571,9.1494 C158.6331,10.3594 158.0211,11.8084 158.0211,13.4984 C158.0211,14.6684 158.3891,15.8424 159.1241,17.0174 C159.8601,18.1934 161.4891,19.8644 164.0111,22.0284 C165.3351,23.1664 166.1921,24.0114 166.5801,24.5624 C166.9691,25.1154 167.1631,25.6674 167.1631,26.2204 C167.1631,26.8274 166.9071,27.3624 166.3921,27.8264" id="Fill-11" fill="#FFFFFF"></path>
                <g id="Group-15">
                    <mask id="mask-2" fill="white">
                        <use xlink:href="#path-1"></use>
                    </mask>
                    <g id="Clip-14"></g>
                    <path d="M179.8022,36.6076 L46.0442,36.6076 L46.0442,20.0006 L46.0442,3.3926 L179.8022,3.3926 L179.8022,36.6076 Z M39.8142,14.3986 C38.6902,15.5886 37.3262,16.1836 35.7242,16.1836 C34.0442,16.1836 32.6492,15.5736 31.5382,14.3506 C30.4272,13.1286 29.8712,11.6766 29.8712,9.9966 C29.8712,8.8706 30.1302,7.8346 30.6482,6.8896 C31.1652,5.9456 31.8762,5.1966 32.7822,4.6446 C33.6882,4.0916 34.6632,3.8156 35.7082,3.8156 C37.2912,3.8156 38.6522,4.4196 39.7912,5.6256 C40.9302,6.8316 41.4992,8.3016 41.4992,10.0366 C41.4992,11.7536 40.9382,13.2096 39.8142,14.3986 Z M26.9902,6.4876 L23.0012,6.4876 L23.0012,8.4606 L26.9902,8.4606 L26.9902,10.7026 L23.0012,10.7026 L23.0012,13.5036 L26.9902,13.5036 L26.9902,15.7936 L20.8572,15.7936 C20.7712,15.7936 20.7012,15.7236 20.7012,15.6376 L20.7012,4.3626 C20.7012,4.2766 20.7712,4.2066 20.8572,4.2066 L26.9902,4.2066 L26.9902,6.4876 Z M17.0072,15.6816 C17.0072,15.7666 16.8642,15.8076 16.7822,15.7476 L8.2002,9.8986 L8.2002,15.7766 L5.4552,15.7766 L5.4552,4.3636 C5.4552,4.2786 5.6002,4.2376 5.6812,4.2986 L14.2612,10.3016 L14.2612,4.2236 L17.0072,4.2236 L17.0072,15.6816 Z M46.0442,0.0006 L42.6522,0.0006 L-0.0008,0.0006 L-0.0008,20.0006 L42.6522,20.0006 L42.6522,40.0006 L183.1952,40.0006 L183.1952,0.0006 L46.0442,0.0006 Z" id="Fill-13" fill="#FFFFFF" mask="url(#mask-2)"></path>
                </g>
                <path d="M35.686,6.4094 C34.754,6.4094 33.971,6.7504 33.336,7.4324 C32.702,8.1144 32.384,8.9814 32.384,10.0334 C32.384,11.2054 32.784,12.1334 33.582,12.8144 C34.205,13.3474 34.916,13.6144 35.72,13.6144 C36.629,13.6144 37.404,13.2684 38.043,12.5774 C38.683,11.8854 39.002,11.0324 39.002,10.0184 C39.002,9.0114 38.68,8.1564 38.037,7.4584 C37.392,6.7594 36.609,6.4094 35.686,6.4094" id="Fill-16" fill="#FFFFFF"></path>
            </g>
        </g>
    </g>
</svg>