<?xml version="1.0" encoding="UTF-8"?>
<svg width="76px" height="65px" viewBox="0 0 76 65" version="1.1" xmlns="http://www.w3.org/2000/svg" xmlns:xlink="http://www.w3.org/1999/xlink">
    <!-- Generator: Sketch 52.5 (67469) - https://www.bohemiancoding.com/sketch -->
    <title>Group 5</title>
    <desc>Created with Sketch.</desc>
    <defs>
        <polygon id="path-1" points="0 65 76 65 76 0 0 0"></polygon>
    </defs>
    <g id="Page-1" stroke="none" stroke-width="1" fill="none" fill-rule="evenodd">
        <g id="SP" transform="translate(-15.000000, -15.000000)">
            <g id="Group-5" transform="translate(15.000000, 15.000000)">
                <path d="M55.5916798,45.6272245 C54.7428771,46.3882847 53.6941094,46.7690931 52.4473344,46.7690931 C50.0567034,46.7690931 47.9432267,45.0020082 46.1066247,41.4681168 L40,45.3282564 C41.4372313,48.3184936 43.1644817,50.5114827 45.1820311,51.9069453 C47.1993008,53.3021295 49.5672784,54 52.285964,54 C55.7664744,54 58.588918,52.9307856 60.7530152,50.7923568 C62.9176717,48.653928 64,45.9445648 64,42.663989 C64,40.9787446 63.6923615,39.4248901 63.0773641,38.001869 C62.462087,36.5794047 61.4180738,35.0890184 59.9456039,33.5301533 C59.3563363,32.8960293 57.6755113,31.3647227 54.9031288,28.9359553 C51.9405698,26.3084326 50.1643769,24.5956296 49.5753889,23.7981031 C49.1418983,23.200167 48.9254326,22.5657646 48.9254326,21.8951743 C48.9254326,21.2248623 49.2285964,20.6221939 49.8352036,20.0874476 C50.4418109,19.5529795 51.221255,19.2854672 52.1743751,19.2854672 C54.1326342,19.2854672 56.0556546,20.6628358 57.9448348,23.417573 L63.3254326,18.4428449 C61.3162734,15.9962619 59.4503059,14.3107391 57.7275302,13.3865548 C56.0041951,12.4620921 54.1899668,12 52.285125,12 C49.3236847,12 46.83405,12.9923846 44.8167803,14.9768755 C42.7989512,16.961088 41.7901765,19.3397491 41.7901765,22.1125803 C41.7901765,24.0338815 42.3962244,25.9593582 43.6094389,27.8892888 C44.822094,29.8194977 47.508058,32.5608733 51.6670512,36.1125803 C53.8496067,37.9793212 55.2619472,39.365876 55.9032337,40.2719663 C56.5442405,41.178335 56.8650236,42.0841469 56.8650236,42.9902372 C56.8650236,43.9870757 56.4404824,44.8661643 55.5916798,45.6272245" id="Fill-1" fill="#FFFFFF"></path>
                <mask id="mask-2" fill="white">
                    <use xlink:href="#path-1"></use>
                </mask>
                <g id="Clip-4"></g>
                <path d="M34.3212386,58.1092387 L69.019428,58.1092387 L69.019428,6.89076129 L34.3212386,6.89076129 L34.3212386,58.1092387 Z M27.0469241,27.0674616 L10.6836258,16.0593326 L10.6836258,27.1223121 L5.44791759,27.1223121 L5.44791759,5.64132845 C5.44791759,5.4806359 5.72406901,5.40263248 5.87875849,5.51977542 L22.2398231,16.817592 L22.2398231,5.37782574 L27.3406666,5.37782574 L27.3406666,27.1005373 C27.2493607,27.1341642 27.1315287,27.1300297 27.0469241,27.0674616 Z M32.9234488,0 L0,0 L0,32.4998622 L27.3406666,32.4998622 L27.3406666,65 L76,65 L76,0 L32.9234488,0 Z" id="Fill-3" fill="#FFFFFF" mask="url(#mask-2)"></path>
            </g>
        </g>
    </g>
</svg>