<?xml version="1.0" encoding="utf-8"?>
<!-- Generator: Adobe Illustrator 23.0.1, SVG Export Plug-In . SVG Version: 6.00 Build 0)  -->
<svg version="1.1" id="レイヤー_1" xmlns="http://www.w3.org/2000/svg" xmlns:xlink="http://www.w3.org/1999/xlink" x="0px"
	 y="0px" viewBox="0 0 184 40" style="enable-background:new 0 0 184 40;" xml:space="preserve">
<style type="text/css">
	.st0{fill-rule:evenodd;clip-rule:evenodd;fill:#11225C;}
	.st1{filter:url(#Adobe_OpacityMaskFilter);}
	.st2{fill-rule:evenodd;clip-rule:evenodd;fill:#FFFFFF;}
	.st3{mask:url(#mask-2_1_);fill-rule:evenodd;clip-rule:evenodd;fill:#11225C;}
</style>
<title>Group 18</title>
<desc>Created with Sketch.</desc>
<g id="Page-1">
	<g id="Desktop-HD" transform="translate(-155.000000, -24.000000)">
		<g id="Group-18" transform="translate(155.000000, 24.000000)">
			<path id="Fill-1" class="st0" d="M62.9,27.8c-0.5,0.5-1.1,0.7-1.9,0.7c-1.5,0-2.7-1.1-3.8-3.2l-3.7,2.4c0.9,1.8,1.9,3.2,3.1,4
				c1.2,0.9,2.7,1.3,4.3,1.3c2.1,0,3.8-0.7,5.1-2c1.3-1.3,2-3,2-5c0-1-0.2-2-0.6-2.8c-0.4-0.9-1-1.8-1.9-2.7
				c-0.4-0.4-1.4-1.3-3.1-2.8c-1.8-1.6-2.9-2.6-3.2-3.1c-0.3-0.4-0.4-0.8-0.4-1.2c0-0.4,0.2-0.8,0.6-1.1c0.4-0.3,0.8-0.5,1.4-0.5
				c1.2,0,2.4,0.8,3.5,2.5l3.3-3c-1.2-1.5-2.3-2.5-3.4-3.1c-1-0.6-2.1-0.8-3.3-0.8c-1.8,0-3.3,0.6-4.5,1.8c-1.2,1.2-1.8,2.7-1.8,4.3
				c0,1.2,0.4,2.3,1.1,3.5c0.7,1.2,2.4,2.8,4.9,5c1.3,1.1,2.2,2,2.6,2.5c0.4,0.6,0.6,1.1,0.6,1.7C63.6,26.8,63.4,27.4,62.9,27.8"/>
			<path id="Fill-3" class="st0" d="M78.4,12.5h1.2c1.4,0,2.3,0.2,2.8,0.5c0.7,0.4,1,1.1,1,2.1c0,0.5-0.1,1-0.4,1.4s-0.6,0.7-1,0.8
				s-1.2,0.2-2.3,0.2h-1.4V12.5z M78.4,22c2.2,0,3.8-0.1,4.6-0.4c1.4-0.4,2.6-1.2,3.4-2.4c0.8-1.1,1.3-2.5,1.3-4.2
				c0-1.5-0.3-2.9-1-3.9c-0.6-1.1-1.5-1.9-2.6-2.4c-1.1-0.5-2.9-0.7-5.5-0.7H74v24.4h4.4V22z"/>
			<path id="Fill-5" class="st0" d="M99,14.2c1.5-1.6,3.3-2.4,5.4-2.4c2.1,0,3.9,0.8,5.4,2.4c1.5,1.6,2.2,3.6,2.2,5.9
				c0,2.3-0.7,4.3-2.2,5.9c-1.5,1.6-3.2,2.4-5.3,2.4c-1.8,0-3.5-0.6-4.9-1.8c-1.8-1.6-2.8-3.7-2.8-6.4C96.9,17.8,97.6,15.8,99,14.2
				 M104.5,32.9c3.3,0,6.1-1.2,8.5-3.7c2.3-2.5,3.5-5.5,3.5-9c0-3.6-1.2-6.6-3.5-9.1c-2.4-2.5-5.2-3.7-8.4-3.7
				c-2.2,0-4.2,0.6-6.1,1.7s-3.3,2.7-4.4,4.6c-1.1,2-1.6,4.1-1.6,6.4c0,3.5,1.1,6.5,3.4,9C98.2,31.7,101,32.9,104.5,32.9"/>
			<path id="Fill-7" class="st0" d="M127.1,12.5h1.2c1.2,0,2,0.1,2.4,0.3c0.4,0.2,0.8,0.5,1.1,0.8c0.3,0.4,0.4,0.9,0.4,1.4
				c0,0.9-0.3,1.5-0.8,1.9c-0.5,0.4-1.5,0.6-2.9,0.6h-1.4V12.5z M127.1,22h0.4l5.2,10.3h4.8l-5.5-10.8c1.5-0.6,2.6-1.4,3.3-2.4
				c0.7-1.1,1.1-2.4,1.1-4c0-1.5-0.3-2.8-1-4c-0.7-1.1-1.5-1.9-2.6-2.4c-1.1-0.5-2.9-0.7-5.5-0.7h-4.7v24.4h4.4V22z"/>
			<polygon id="Fill-9" class="st0" points="144.9,32.3 149.4,32.3 149.4,12.5 153.6,12.5 153.6,7.9 140.8,7.9 140.8,12.5 
				144.9,12.5 			"/>
			<path id="Fill-11" class="st0" d="M166.4,27.8c-0.5,0.5-1.2,0.7-1.9,0.7c-1.5,0-2.7-1.1-3.8-3.2l-3.7,2.4c0.9,1.8,1.9,3.2,3.1,4
				c1.2,0.9,2.7,1.3,4.3,1.3c2.1,0,3.8-0.7,5.1-2c1.3-1.3,2-3,2-5c0-1-0.2-2-0.6-2.8c-0.4-0.9-1-1.8-1.9-2.7
				c-0.4-0.4-1.4-1.3-3.1-2.8c-1.8-1.6-2.9-2.6-3.2-3.1c-0.3-0.4-0.4-0.8-0.4-1.2c0-0.4,0.2-0.8,0.6-1.1c0.4-0.3,0.8-0.5,1.4-0.5
				c1.2,0,2.4,0.8,3.5,2.5l3.3-3c-1.2-1.5-2.4-2.5-3.4-3.1c-1-0.6-2.1-0.8-3.3-0.8c-1.8,0-3.3,0.6-4.5,1.8c-1.2,1.2-1.8,2.7-1.8,4.3
				c0,1.2,0.4,2.3,1.1,3.5c0.7,1.2,2.4,2.8,4.9,5c1.3,1.1,2.2,2,2.6,2.5c0.4,0.6,0.6,1.1,0.6,1.7C167.2,26.8,166.9,27.4,166.4,27.8"
				/>
			<g id="Group-15">
				<g id="Clip-14">
				</g>
				<defs>
					<filter id="Adobe_OpacityMaskFilter" filterUnits="userSpaceOnUse" x="0" y="0" width="183.2" height="40">
						<feColorMatrix  type="matrix" values="1 0 0 0 0  0 1 0 0 0  0 0 1 0 0  0 0 0 1 0"/>
					</filter>
				</defs>
				<mask maskUnits="userSpaceOnUse" x="0" y="0" width="183.2" height="40" id="mask-2_1_">
					<g class="st1">
						<polygon id="path-1_1_" class="st2" points="0,0 183.2,0 183.2,40 0,40 						"/>
					</g>
				</mask>
				<path id="Fill-13" class="st3" d="M179.8,36.6H46V20V3.4h133.8V36.6z M39.8,14.4c-1.1,1.2-2.5,1.8-4.1,1.8
					c-1.7,0-3.1-0.6-4.2-1.8c-1.1-1.2-1.7-2.7-1.7-4.4c0-1.1,0.3-2.2,0.8-3.1c0.5-0.9,1.2-1.7,2.1-2.2c0.9-0.6,1.9-0.8,2.9-0.8
					c1.6,0,2.9,0.6,4.1,1.8s1.7,2.7,1.7,4.4C41.5,11.8,40.9,13.2,39.8,14.4z M27,6.5h-4v2h4v2.2h-4v2.8h4v2.3h-6.1
					c-0.1,0-0.2-0.1-0.2-0.2V4.4c0-0.1,0.1-0.2,0.2-0.2H27V6.5z M17,15.7c0,0.1-0.1,0.1-0.2,0.1L8.2,9.9v5.9H5.5V4.4
					c0-0.1,0.1-0.1,0.2-0.1l8.6,6V4.2H17V15.7z M46,0h-3.4H0v20h42.7v20h140.5V0H46z"/>
			</g>
			<path id="Fill-16" class="st0" d="M35.7,6.4c-0.9,0-1.7,0.3-2.4,1c-0.6,0.7-1,1.5-1,2.6c0,1.2,0.4,2.1,1.2,2.8
				c0.6,0.5,1.3,0.8,2.1,0.8c0.9,0,1.7-0.3,2.3-1c0.6-0.7,1-1.5,1-2.6c0-1-0.3-1.9-1-2.6C37.4,6.8,36.6,6.4,35.7,6.4"/>
		</g>
	</g>
</g>
</svg>
